<?xml version="1.0" encoding="utf-8"?>
<svg width="502" height="276" viewBox="0 0 502 276" xmlns="http://www.w3.org/2000/svg">
<rect id="frame" x="0" y="0" width="502" height="276" fill="#f7f7f7" stroke="none" stroke-width="0"/>

<!-- Association naitre -->
<g>
	<line x1="46" y1="44" x2="172" y2="44" stroke="#9970ab" stroke-width="1"/>
	<text x="86" y="60" fill="#1b7837" font-family="Courier New" font-size="12">0,N</text>
	<line x1="172" y1="138" x2="172" y2="44" stroke="#9970ab" stroke-width="1"/>
	<text x="144" y="86" fill="#1b7837" font-family="Courier New" font-size="12">1,1</text>
	<polygon points="172 94 166 82 172 86 178 82" fill="#9970ab" stroke-width="0"/>
	<g>
		<path d="M191 18 a14 14 90 0 1 14 14 V44 h-66 V32 a14 14 90 0 1 14 -14" fill="#c2a5cf" stroke="#c2a5cf" stroke-width="0"/>
		<path d="M205 44 v12 a14 14 90 0 1 -14 14 H153 a14 14 90 0 1 -14 -14 V44 H66" fill="#e7d4e8" stroke="#e7d4e8" stroke-width="0"/>
		<rect x="139" y="18" width="66" height="52" fill="none" rx="14" stroke="#9970ab" stroke-width="1.5"/>
		<line x1="139" y1="44" x2="205" y2="44" stroke="#9970ab" stroke-width="1"/>
		<text x="146" y="36.6" fill="#000" font-family="Courier New" font-size="14">naitre</text>
	</g>
</g>

<!-- Association caractériser -->
<g>
	<line x1="441" y1="44" x2="298" y2="44" stroke="#9970ab" stroke-width="1"/>
	<text x="361" y="60" fill="#1b7837" font-family="Courier New" font-size="12">0,N</text>
	<line x1="172" y1="138" x2="298" y2="44" stroke="#9970ab" stroke-width="1"/>
	<text x="233" y="106.59" fill="#1b7837" font-family="Courier New" font-size="12">1,1</text>
	<polygon points="228 96.22 234.03 84.24 234.41 91.44 241.21 93.86" fill="#9970ab" stroke-width="0"/>
	<g>
		<path d="M342 18 a14 14 90 0 1 14 14 V44 h-116 V32 a14 14 90 0 1 14 -14" fill="#c2a5cf" stroke="#c2a5cf" stroke-width="0"/>
		<path d="M356 44 v12 a14 14 90 0 1 -14 14 H254 a14 14 90 0 1 -14 -14 V44 H116" fill="#e7d4e8" stroke="#e7d4e8" stroke-width="0"/>
		<rect x="240" y="18" width="116" height="52" fill="none" rx="14" stroke="#9970ab" stroke-width="1.5"/>
		<line x1="240" y1="44" x2="356" y2="44" stroke="#9970ab" stroke-width="1"/>
		<text x="247" y="36.6" fill="#000" font-family="Courier New" font-size="14">caractériser</text>
	</g>
</g>

<!-- Association parenté -->
<g>
	<path d="M172 138 C117.33 170 75.33 170 46 138" fill="none" stroke="#9970ab" stroke-width="1"/>
	<text x="88" y="152" fill="#1b7837" font-family="Courier New" font-size="12">0,N</text>
	<polygon points="83.0 160.21 96.03 157.01 90.81 161.98 93.38 168.72" fill="#9970ab" stroke-width="0"/>
	<path d="M172 138 C117.33 106 75.33 106 46 138" fill="none" stroke="#9970ab" stroke-width="1"/>
	<text x="88" y="132" fill="#1b7837" font-family="Courier New" font-size="12">0,N</text>
	<g>
		<path d="M69 112 a14 14 90 0 1 14 14 V138 h-74 V126 a14 14 90 0 1 14 -14" fill="#c2a5cf" stroke="#c2a5cf" stroke-width="0"/>
		<path d="M83 138 v12 a14 14 90 0 1 -14 14 H23 a14 14 90 0 1 -14 -14 V138 H74" fill="#e7d4e8" stroke="#e7d4e8" stroke-width="0"/>
		<rect x="9" y="112" width="74" height="52" fill="none" rx="14" stroke="#9970ab" stroke-width="1.5"/>
		<line x1="9" y1="138" x2="83" y2="138" stroke="#9970ab" stroke-width="1"/>
		<text x="16" y="130.6" fill="#000" font-family="Courier New" font-size="14">parenté</text>
		<text x="16" y="156.6" fill="#000" font-family="Courier New" font-size="14">lien</text>
	</g>
</g>

<!-- Association mesurer -->
<g>
	<line x1="172" y1="138" x2="298" y2="138" stroke="#9970ab" stroke-width="1"/>
	<text x="233" y="154" fill="#1b7837" font-family="Courier New" font-size="12">0,N</text>
	<line x1="441" y1="138" x2="298" y2="138" stroke="#9970ab" stroke-width="1"/>
	<text x="382" y="154" fill="#1b7837" font-family="Courier New" font-size="12">1,1</text>
	<polygon points="410 138 398 144 402 138 398 132" fill="#9970ab" stroke-width="0"/>
	<g>
		<path d="M321 112 a14 14 90 0 1 14 14 V138 h-74 V126 a14 14 90 0 1 14 -14" fill="#c2a5cf" stroke="#c2a5cf" stroke-width="0"/>
		<path d="M335 138 v12 a14 14 90 0 1 -14 14 H275 a14 14 90 0 1 -14 -14 V138 H74" fill="#e7d4e8" stroke="#e7d4e8" stroke-width="0"/>
		<rect x="261" y="112" width="74" height="52" fill="none" rx="14" stroke="#9970ab" stroke-width="1.5"/>
		<line x1="261" y1="138" x2="335" y2="138" stroke="#9970ab" stroke-width="1"/>
		<text x="268" y="130.6" fill="#000" font-family="Courier New" font-size="14">mesurer</text>
	</g>
</g>

<!-- Association cataloguer -->
<g>
	<line x1="46" y1="232" x2="172" y2="232" stroke="#9970ab" stroke-width="1"/>
	<text x="82" y="248" fill="#1b7837" font-family="Courier New" font-size="12">0,N</text>
	<line x1="172" y1="138" x2="172" y2="232" stroke="#9970ab" stroke-width="1"/>
	<text x="144" y="198" fill="#1b7837" font-family="Courier New" font-size="12">1,1</text>
	<polygon points="172 182 178 194 172 190 166 194" fill="#9970ab" stroke-width="0"/>
	<g>
		<path d="M208 206 a14 14 90 0 1 14 14 V232 h-100 V220 a14 14 90 0 1 14 -14" fill="#c2a5cf" stroke="#c2a5cf" stroke-width="0"/>
		<path d="M222 232 v12 a14 14 90 0 1 -14 14 H136 a14 14 90 0 1 -14 -14 V232 H100" fill="#e7d4e8" stroke="#e7d4e8" stroke-width="0"/>
		<rect x="122" y="206" width="100" height="52" fill="none" rx="14" stroke="#9970ab" stroke-width="1.5"/>
		<line x1="122" y1="232" x2="222" y2="232" stroke="#9970ab" stroke-width="1"/>
		<text x="130" y="224.6" fill="#000" font-family="Courier New" font-size="14">cataloguer</text>
	</g>
</g>

<!-- Association définir -->
<g>
	<line x1="441" y1="232" x2="298" y2="232" stroke="#9970ab" stroke-width="1"/>
	<text x="386" y="248" fill="#1b7837" font-family="Courier New" font-size="12">0,N</text>
	<line x1="172" y1="138" x2="298" y2="232" stroke="#9970ab" stroke-width="1"/>
	<text x="233" y="177.41" fill="#1b7837" font-family="Courier New" font-size="12">1,1</text>
	<polygon points="228 179.78 241.21 182.14 234.41 184.56 234.03 191.76" fill="#9970ab" stroke-width="0"/>
	<g>
		<path d="M321 206 a14 14 90 0 1 14 14 V232 h-74 V220 a14 14 90 0 1 14 -14" fill="#c2a5cf" stroke="#c2a5cf" stroke-width="0"/>
		<path d="M335 232 v12 a14 14 90 0 1 -14 14 H275 a14 14 90 0 1 -14 -14 V232 H74" fill="#e7d4e8" stroke="#e7d4e8" stroke-width="0"/>
		<rect x="261" y="206" width="74" height="52" fill="none" rx="14" stroke="#9970ab" stroke-width="1.5"/>
		<line x1="261" y1="232" x2="335" y2="232" stroke="#9970ab" stroke-width="1"/>
		<text x="268" y="224.6" fill="#000" font-family="Courier New" font-size="14">définir</text>
	</g>
</g>

<!-- Entity élevage -->
<g>
	<g>
		<rect x="11" y="9" width="70" height="26" fill="#a6dba0" stroke="#a6dba0" stroke-width="0" opacity="1"/>
		<rect x="11" y="35" width="70" height="44" fill="#d9f0d3" stroke="#d9f0d3" stroke-width="0" opacity="1"/>
		<rect x="11" y="9" width="70" height="70" fill="none" stroke="#5aae61" stroke-width="1.5" opacity="1"/>
		<line x1="11" y1="35" x2="81" y2="35" stroke="#5aae61" stroke-width="1"/>
	</g>
	<text x="16" y="27.6" fill="#000" font-family="Courier New" font-size="14">élevage</text>
	<text x="16" y="53.6" fill="#000" font-family="Courier New" font-size="14">nom</text>
	<text x="16" y="71.6" fill="#000" font-family="Courier New" font-size="14">adresse</text>
</g>

<!-- Entity robe -->
<g>
	<g>
		<rect x="389" y="18" width="104" height="26" fill="#a6dba0" stroke="#a6dba0" stroke-width="0" opacity="1"/>
		<rect x="389" y="44" width="104" height="26" fill="#d9f0d3" stroke="#d9f0d3" stroke-width="0" opacity="1"/>
		<rect x="389" y="18" width="104" height="52" fill="none" stroke="#5aae61" stroke-width="1.5" opacity="1"/>
		<line x1="389" y1="44" x2="493" y2="44" stroke="#5aae61" stroke-width="1"/>
	</g>
	<text x="424" y="36.6" fill="#000" font-family="Courier New" font-size="14">robe</text>
	<text x="394" y="62.6" fill="#000" font-family="Courier New" font-size="14">description</text>
</g>

<!-- Entity animal -->
<g>
	<g>
		<rect x="116" y="94" width="112" height="26" fill="#a6dba0" stroke="#a6dba0" stroke-width="0" opacity="1"/>
		<rect x="116" y="120" width="112" height="62" fill="#d9f0d3" stroke="#d9f0d3" stroke-width="0" opacity="1"/>
		<rect x="116" y="94" width="112" height="88" fill="none" stroke="#5aae61" stroke-width="1.5" opacity="1"/>
		<line x1="116" y1="120" x2="228" y2="120" stroke="#5aae61" stroke-width="1"/>
	</g>
	<text x="146" y="112.6" fill="#000" font-family="Courier New" font-size="14">animal</text>
	<text x="121" y="138.6" fill="#000" font-family="Courier New" font-size="14">nom</text>
	<text x="121" y="156.6" fill="#000" font-family="Courier New" font-size="14">pseudonyme</text>
	<text x="121" y="174.6" fill="#000" font-family="Courier New" font-size="14">anniversaire</text>
</g>

<!-- Entity mesure -->
<g>
	<g>
		<rect x="410" y="94" width="62" height="26" fill="#a6dba0" stroke="#a6dba0" stroke-width="0" opacity="1"/>
		<rect x="410" y="120" width="62" height="62" fill="#d9f0d3" stroke="#d9f0d3" stroke-width="0" opacity="1"/>
		<rect x="410" y="94" width="62" height="88" fill="none" stroke="#5aae61" stroke-width="1.5" opacity="1"/>
		<line x1="410" y1="120" x2="472" y2="120" stroke="#5aae61" stroke-width="1"/>
	</g>
	<text x="415" y="112.6" fill="#000" font-family="Courier New" font-size="14">mesure</text>
	<text x="415" y="138.6" fill="#000" font-family="Courier New" font-size="14">date</text>
	<text x="415" y="156.6" fill="#000" font-family="Courier New" font-size="14">poids</text>
	<text x="415" y="174.6" fill="#000" font-family="Courier New" font-size="14">taille</text>
</g>

<!-- Entity race -->
<g>
	<g>
		<rect x="15" y="197" width="62" height="26" fill="#a6dba0" stroke="#a6dba0" stroke-width="0" opacity="1"/>
		<rect x="15" y="223" width="62" height="44" fill="#d9f0d3" stroke="#d9f0d3" stroke-width="0" opacity="1"/>
		<rect x="15" y="197" width="62" height="70" fill="none" stroke="#5aae61" stroke-width="1.5" opacity="1"/>
		<line x1="15" y1="223" x2="77" y2="223" stroke="#5aae61" stroke-width="1"/>
	</g>
	<text x="29" y="215.6" fill="#000" font-family="Courier New" font-size="14">race</text>
	<text x="20" y="241.6" fill="#000" font-family="Courier New" font-size="14">nom</text>
	<text x="20" y="259.6" fill="#000" font-family="Courier New" font-size="14">espèce</text>
</g>

<!-- Entity genre -->
<g>
	<g>
		<rect x="414" y="206" width="54" height="26" fill="#a6dba0" stroke="#a6dba0" stroke-width="0" opacity="1"/>
		<rect x="414" y="232" width="54" height="26" fill="#d9f0d3" stroke="#d9f0d3" stroke-width="0" opacity="1"/>
		<rect x="414" y="206" width="54" height="52" fill="none" stroke="#5aae61" stroke-width="1.5" opacity="1"/>
		<line x1="414" y1="232" x2="468" y2="232" stroke="#5aae61" stroke-width="1"/>
	</g>
	<text x="420" y="224.6" fill="#000" font-family="Courier New" font-size="14">genre</text>
	<text x="419" y="250.6" fill="#000" font-family="Courier New" font-size="14">sex</text>
</g>
</svg>